<svg width="24" height="25" viewBox="0 0 24 25" fill="none" xmlns="http://www.w3.org/2000/svg">
<path d="M15 23.25H9C3.57 23.25 1.25 20.93 1.25 15.5V9.5C1.25 4.07 3.57 1.75 9 1.75H11C11.41 1.75 11.75 2.09 11.75 2.5C11.75 2.91 11.41 3.25 11 3.25H9C4.39 3.25 2.75 4.89 2.75 9.5V15.5C2.75 20.11 4.39 21.75 9 21.75H15C19.61 21.75 21.25 20.11 21.25 15.5V13.5C21.25 13.09 21.59 12.75 22 12.75C22.41 12.75 22.75 13.09 22.75 13.5V15.5C22.75 20.93 20.43 23.25 15 23.25Z" fill="#0F172A"/>
<path d="M8.50032 18.1896C7.89032 18.1896 7.33032 17.9696 6.92032 17.5696C6.43032 17.0796 6.22032 16.3696 6.33032 15.6196L6.76032 12.6096C6.84032 12.0296 7.22032 11.2796 7.63032 10.8696L15.5103 2.98957C17.5003 0.99957 19.5203 0.99957 21.5103 2.98957C22.6003 4.07957 23.0903 5.18957 22.9903 6.29957C22.9003 7.19957 22.4203 8.07957 21.5103 8.97957L13.6303 16.8596C13.2203 17.2696 12.4703 17.6496 11.8903 17.7296L8.88032 18.1596C8.75032 18.1896 8.62032 18.1896 8.50032 18.1896ZM16.5703 4.04957L8.69032 11.9296C8.50032 12.1196 8.28032 12.5596 8.24032 12.8196L7.81032 15.8296C7.77032 16.1196 7.83032 16.3596 7.98032 16.5096C8.13032 16.6596 8.37032 16.7196 8.66032 16.6796L11.6703 16.2496C11.9303 16.2096 12.3803 15.9896 12.5603 15.7996L20.4403 7.91957C21.0903 7.26957 21.4303 6.68957 21.4803 6.14957C21.5403 5.49957 21.2003 4.80957 20.4403 4.03957C18.8403 2.43957 17.7403 2.88957 16.5703 4.04957Z" fill="#0F172A"/>
<path d="M19.8496 10.3303C19.7796 10.3303 19.7096 10.3203 19.6496 10.3003C17.0196 9.56027 14.9296 7.47027 14.1896 4.84027C14.0796 4.44027 14.3096 4.03027 14.7096 3.91027C15.1096 3.80027 15.5196 4.03027 15.6296 4.43027C16.2296 6.56027 17.9196 8.25027 20.0496 8.85027C20.4496 8.96027 20.6796 9.38027 20.5696 9.78027C20.4796 10.1203 20.1796 10.3303 19.8496 10.3303Z" fill="#0F172A"/>
</svg>
