<svg width="21" height="21" viewBox="0 0 21 21" fill="none" xmlns="http://www.w3.org/2000/svg">
<path opacity="0.48" d="M17.1419 8.8335V15.5002C17.1419 18.0002 16.3086 18.8335 13.8086 18.8335H7.14193C4.64193 18.8335 3.80859 18.0002 3.80859 15.5002V8.8335H17.1419Z" fill="#FFC100"/>
<path d="M18.4163 6.33317V7.1665C18.4163 8.08317 17.9747 8.83317 16.7497 8.83317H4.24967C2.97467 8.83317 2.58301 8.08317 2.58301 7.1665V6.33317C2.58301 5.4165 2.97467 4.6665 4.24967 4.6665H16.7497C17.9747 4.6665 18.4163 5.4165 18.4163 6.33317Z" fill="#FFC100"/>
<path d="M10.2 4.66686H5.59998C5.31665 4.35853 5.32498 3.88353 5.62498 3.58353L6.80832 2.4002C7.11665 2.09186 7.62498 2.09186 7.93332 2.4002L10.2 4.66686Z" fill="#FE5960"/>
<path d="M15.392 4.66686H10.792L13.0587 2.4002C13.367 2.09186 13.8753 2.09186 14.1837 2.4002L15.367 3.58353C15.667 3.88353 15.6753 4.35853 15.392 4.66686Z" fill="#FE5960"/>
<path d="M7.9502 8.8335V13.1168C7.9502 13.7835 8.68353 14.1752 9.24186 13.8168L10.0252 13.3002C10.3085 13.1168 10.6669 13.1168 10.9419 13.3002L11.6835 13.8002C12.2335 14.1668 12.9752 13.7752 12.9752 13.1085V8.8335H7.9502Z" fill="#FE5960"/>
</svg>
